<?xml version="1.0" encoding="UTF-8" standalone="no"?>
<svg
   enable-background="new 0 0 128 128"
   id="Social_Icons"
   version="1.1"
   viewBox="0 0 100 100"
   xml:space="preserve"
   sodipodi:docname="improved_youtube_subscriptions_icon.svg"
   width="100"
   height="100"
   inkscape:version="1.3.2 (091e20e, 2023-11-25, custom)"
   inkscape:export-filename="improved_youtube_subscriptions_icon.png"
   inkscape:export-xdpi="96"
   inkscape:export-ydpi="96"
   xmlns:inkscape="http://www.inkscape.org/namespaces/inkscape"
   xmlns:sodipodi="http://sodipodi.sourceforge.net/DTD/sodipodi-0.dtd"
   xmlns:xlink="http://www.w3.org/1999/xlink"
   xmlns="http://www.w3.org/2000/svg"
   xmlns:svg="http://www.w3.org/2000/svg"><defs
     id="defs1" /><sodipodi:namedview
     id="namedview1"
     pagecolor="#ffffff"
     bordercolor="#000000"
     borderopacity="0.25"
     inkscape:showpageshadow="2"
     inkscape:pageopacity="0.0"
     inkscape:pagecheckerboard="true"
     inkscape:deskcolor="#d1d1d1"
     showborder="false"
     showgrid="true"
     inkscape:zoom="5.6568543"
     inkscape:cx="24.837126"
     inkscape:cy="76.45592"
     inkscape:window-width="2400"
     inkscape:window-height="1271"
     inkscape:window-x="-9"
     inkscape:window-y="-9"
     inkscape:window-maximized="1"
     inkscape:current-layer="layer7"><inkscape:grid
       id="grid10"
       units="px"
       originx="0"
       originy="0"
       spacingx="1"
       spacingy="1"
       empcolor="#0099e5"
       empopacity="0.30196078"
       color="#0099e5"
       opacity="0.14901961"
       empspacing="5"
       dotted="false"
       gridanglex="30"
       gridanglez="30"
       visible="true" /></sodipodi:namedview><g
     inkscape:groupmode="layer"
     id="layer7"
     inkscape:label="ARROW 2"><path
       style="display:inline;fill:#f5f5f5;fill-opacity:1;stroke:#423b61;stroke-width:0.645426;stroke-linecap:round;stroke-linejoin:round;stroke-dasharray:none;stroke-opacity:1"
       d="m 64.905122,30.538283 c 0,0 12.176856,2.858375 16.280376,9.454527 4.103519,6.596152 2.21108,26.898885 2.21108,26.898885 0,0 1.903416,-20.364549 -2.193747,-26.953012 -4.097163,-6.588464 -16.297709,-9.4004 -16.297709,-9.4004 z"
       id="path21-4-9"
       sodipodi:nodetypes="szczs" /><path
       style="display:inline;fill:#f5f5f5;fill-opacity:1;stroke:#423b61;stroke-width:0.645426;stroke-linecap:round;stroke-linejoin:round;stroke-dasharray:none;stroke-opacity:1"
       d="M 83.319339,67.057214 79.45235,63.190225 Z"
       id="path22-7-1" /><path
       style="display:inline;fill:#f5f5f5;fill-opacity:1;stroke:#423b61;stroke-width:0.645426;stroke-linecap:round;stroke-linejoin:round;stroke-dasharray:none;stroke-opacity:1"
       d="m 83.374979,67.085035 3.85308,-3.85308 z"
       id="path23-5-9" /></g><g
     inkscape:groupmode="layer"
     id="layer6"
     inkscape:label="ARROW 1"><path
       style="display:inline;fill:#f5f5f5;fill-opacity:1;stroke:#423b61;stroke-width:0.645426;stroke-linecap:round;stroke-linejoin:round;stroke-dasharray:none;stroke-opacity:1"
       d="m 36.242143,31.214645 c 0,0 -12.176856,2.858375 -16.280375,9.454527 -4.103519,6.596152 -2.21108,26.898885 -2.21108,26.898885 0,0 -1.903416,-20.364549 2.193747,-26.953013 4.097162,-6.588463 16.297708,-9.400399 16.297708,-9.400399 z"
       id="path21-4"
       sodipodi:nodetypes="szczs" /><path
       style="display:inline;fill:#f5f5f5;fill-opacity:1;stroke:#423b61;stroke-width:0.645426;stroke-linecap:round;stroke-linejoin:round;stroke-dasharray:none;stroke-opacity:1"
       d="m 17.827926,67.733576 3.86699,-3.866989 z"
       id="path22-7" /><path
       style="display:inline;fill:#f5f5f5;fill-opacity:1;stroke:#423b61;stroke-width:0.645426;stroke-linecap:round;stroke-linejoin:round;stroke-dasharray:none;stroke-opacity:1"
       d="M 17.772286,67.761396 13.919207,63.908317 Z"
       id="path23-5" /></g><g
     inkscape:groupmode="layer"
     id="layer5"
     inkscape:label="ARROW"><path
       style="display:inline;fill:#f5f5f5;fill-opacity:1;stroke:#423b61;stroke-width:0.645426;stroke-linecap:round;stroke-linejoin:round;stroke-dasharray:none;stroke-opacity:1"
       d="m 50.480222,30.962106 0.236061,34.228862 z"
       id="path21" /><path
       style="display:inline;fill:#f5f5f5;fill-opacity:1;stroke:#423b61;stroke-width:0.645426;stroke-linecap:round;stroke-linejoin:round;stroke-dasharray:none;stroke-opacity:1"
       d="m 50.793521,65.356487 3.86699,-3.866989 z"
       id="path22" /><path
       style="display:inline;fill:#f5f5f5;fill-opacity:1;stroke:#423b61;stroke-width:0.645426;stroke-linecap:round;stroke-linejoin:round;stroke-dasharray:none;stroke-opacity:1"
       d="m 50.737881,65.384308 -3.85308,-3.85308 z"
       id="path23" /></g><g
     inkscape:groupmode="layer"
     id="layer3"
     inkscape:label="page"
     style="display:inline"><path
       id="rect10"
       style="fill:#f5f5f5;stroke:#423b61;stroke-width:0.725;stroke-linecap:round;stroke-linejoin:round;stroke-dasharray:none;stroke-opacity:1"
       d="m 128.06636,-2.1670136 h 35.1304 l 4.9623,5.0482498 -4.98698,-0.01497 0.0239,-5.0364778 4.93559,5.0209438 0.035,0.05964 V 49.727476 h -40.10021 z"
       sodipodi:nodetypes="cccccccccc"
       inkscape:label="page_base" /><g
       inkscape:groupmode="layer"
       id="layer4"
       inkscape:label="miniplay"
       transform="translate(43.31029,-11.136932)"><rect
         style="fill:#f5f5f5;fill-opacity:1;stroke:#423b61;stroke-width:0.725;stroke-linecap:round;stroke-linejoin:round;stroke-dasharray:none;stroke-opacity:1"
         id="rect11"
         width="10.656575"
         height="4.4806056"
         x="97.157265"
         y="15.410626" /><path
         style="fill:#f5f5f5;fill-opacity:1;stroke:#423b61;stroke-width:0.725;stroke-linecap:round;stroke-linejoin:round;stroke-dasharray:none;stroke-opacity:1"
         d="m 101.21403,16.379405 0.0605,2.543046 2.42194,-1.392621 z"
         id="path14" /><circle
         style="fill:#f5f5f5;fill-opacity:1;stroke:#423b61;stroke-width:0.725;stroke-linecap:round;stroke-linejoin:round;stroke-dasharray:none;stroke-opacity:1"
         id="path15"
         cx="90.860199"
         cy="17.529831"
         r="0.48438978" /></g><g
       inkscape:groupmode="layer"
       id="g20"
       inkscape:label="miniplay copy 4"
       transform="translate(43.31029,-11.136932)"><rect
         style="fill:#f5f5f5;fill-opacity:1;stroke:#423b61;stroke-width:0.725;stroke-linecap:round;stroke-linejoin:round;stroke-dasharray:none;stroke-opacity:1"
         id="rect19"
         width="10.656575"
         height="4.4806056"
         x="97.157265"
         y="50.473125" /><path
         style="fill:#f5f5f5;fill-opacity:1;stroke:#423b61;stroke-width:0.725;stroke-linecap:round;stroke-linejoin:round;stroke-dasharray:none;stroke-opacity:1"
         d="m 101.21403,51.441905 0.0605,2.543046 2.42194,-1.392621 z"
         id="path20" /><circle
         style="fill:#f5f5f5;fill-opacity:1;stroke:#423b61;stroke-width:0.725;stroke-linecap:round;stroke-linejoin:round;stroke-dasharray:none;stroke-opacity:1"
         id="circle20"
         cx="90.860199"
         cy="52.592331"
         r="0.48438978" /></g><g
       inkscape:groupmode="layer"
       id="g19"
       inkscape:label="miniplay copy 3"
       transform="translate(43.31029,-11.136932)"><rect
         style="fill:#f5f5f5;fill-opacity:1;stroke:#423b61;stroke-width:0.725;stroke-linecap:round;stroke-linejoin:round;stroke-dasharray:none;stroke-opacity:1"
         id="rect18"
         width="10.656575"
         height="4.4806056"
         x="97.157265"
         y="43.348125" /><path
         style="fill:#f5f5f5;fill-opacity:1;stroke:#423b61;stroke-width:0.725;stroke-linecap:round;stroke-linejoin:round;stroke-dasharray:none;stroke-opacity:1"
         d="m 101.21403,44.316905 0.0605,2.543046 2.42194,-1.392621 z"
         id="path19" /><circle
         style="fill:#f5f5f5;fill-opacity:1;stroke:#423b61;stroke-width:0.725;stroke-linecap:round;stroke-linejoin:round;stroke-dasharray:none;stroke-opacity:1"
         id="circle19"
         cx="90.860199"
         cy="45.467331"
         r="0.48438978" /></g><g
       inkscape:groupmode="layer"
       id="g18"
       inkscape:label="miniplay copy 2"
       transform="translate(43.31029,-11.136932)"><rect
         style="fill:#f5f5f5;fill-opacity:1;stroke:#423b61;stroke-width:0.725;stroke-linecap:round;stroke-linejoin:round;stroke-dasharray:none;stroke-opacity:1"
         id="rect17"
         width="10.656575"
         height="4.4806056"
         x="97.157265"
         y="36.358665" /><path
         style="fill:#f5f5f5;fill-opacity:1;stroke:#423b61;stroke-width:0.725;stroke-linecap:round;stroke-linejoin:round;stroke-dasharray:none;stroke-opacity:1"
         d="m 101.21403,37.327443 0.0605,2.543046 2.42194,-1.392621 z"
         id="path18" /><circle
         style="fill:#f5f5f5;fill-opacity:1;stroke:#423b61;stroke-width:0.725;stroke-linecap:round;stroke-linejoin:round;stroke-dasharray:none;stroke-opacity:1"
         id="circle18"
         cx="90.860199"
         cy="38.477867"
         r="0.48438978" /></g><g
       inkscape:groupmode="layer"
       id="g17"
       inkscape:label="miniplay copy 1"
       transform="translate(43.31029,-11.136932)"><rect
         style="fill:#f5f5f5;fill-opacity:1;stroke:#423b61;stroke-width:0.725;stroke-linecap:round;stroke-linejoin:round;stroke-dasharray:none;stroke-opacity:1"
         id="rect16"
         width="10.656575"
         height="4.4806056"
         x="97.157265"
         y="29.199209" /><path
         style="fill:#f5f5f5;fill-opacity:1;stroke:#423b61;stroke-width:0.725;stroke-linecap:round;stroke-linejoin:round;stroke-dasharray:none;stroke-opacity:1"
         d="m 101.21403,30.167987 0.0605,2.543046 2.42194,-1.392621 z"
         id="path17" /><circle
         style="fill:#f5f5f5;fill-opacity:1;stroke:#423b61;stroke-width:0.725;stroke-linecap:round;stroke-linejoin:round;stroke-dasharray:none;stroke-opacity:1"
         id="circle17"
         cx="90.860199"
         cy="31.318413"
         r="0.48438978" /></g><g
       inkscape:groupmode="layer"
       id="g16"
       inkscape:label="miniplay copy"
       transform="translate(43.31029,-11.136932)"><rect
         style="fill:#f5f5f5;fill-opacity:1;stroke:#423b61;stroke-width:0.725;stroke-linecap:round;stroke-linejoin:round;stroke-dasharray:none;stroke-opacity:1"
         id="rect15"
         width="10.656575"
         height="4.4806056"
         x="97.157265"
         y="22.348125" /><path
         style="fill:#f5f5f5;fill-opacity:1;stroke:#423b61;stroke-width:0.725;stroke-linecap:round;stroke-linejoin:round;stroke-dasharray:none;stroke-opacity:1"
         d="m 101.21403,23.316905 0.0605,2.543046 2.42194,-1.392621 z"
         id="path16" /><circle
         style="fill:#f5f5f5;fill-opacity:1;stroke:#423b61;stroke-width:0.725;stroke-linecap:round;stroke-linejoin:round;stroke-dasharray:none;stroke-opacity:1"
         id="circle16"
         cx="90.860199"
         cy="24.467331"
         r="0.48438978" /></g></g><g
     inkscape:groupmode="layer"
     id="layer1"
     inkscape:label="play_button"
     transform="matrix(0.53533428,0,0,0.53533428,0.82655374,22.203269)"><rect
       style="fill:#fff3f3;fill-opacity:1;stroke:none;stroke-width:1.4031;stroke-linecap:round;stroke-linejoin:round;stroke-opacity:1"
       id="rect9"
       width="27.808386"
       height="27.230381"
       x="79.400246"
       y="-28.405903"
       inkscape:label="youtube_bg" /><path
       clip-rule="evenodd"
       d="m 125.02591,-26.437699 c 0,0 -0.66398,-4.710994 -2.69836,-6.785147 -2.58169,-2.723817 -5.47522,-2.736545 -6.80106,-2.894586 -9.49942,-0.692091 -23.748547,-0.692091 -23.748547,-0.692091 h -0.0297 c 0,0 -14.249128,0 -23.748546,0.692091 -1.327967,0.158041 -4.21937,0.170769 -6.803178,2.894586 -2.034378,2.074683 -2.69624,6.785147 -2.69624,6.785147 0,0 -0.678833,5.53355 -0.678833,11.064447 v 5.187238 c 0,5.5330183 0.678833,11.06444671 0.678833,11.06444671 0,0 0.661862,4.71099469 2.69624,6.78514339 2.583808,2.7238209 5.97585,2.6384379 7.486254,2.9227009 5.430663,0.525563 23.080319,0.687846 23.080319,0.687846 0,0 14.263978,-0.02119 23.763398,-0.713307 1.32584,-0.160163 4.21937,-0.172885 6.80106,-2.8967058 2.03438,-2.0746828 2.69836,-6.78514779 2.69836,-6.78514779 0,0 0.67884,-5.53142751 0.67884,-11.06497641 v -5.187238 c 0,-5.530897 -0.67884,-11.064447 -0.67884,-11.064447 z m -40.271767,22.5372536 -0.0021,-19.2083196 18.341217,9.637306 z"
       fill="#ce1312"
       fill-rule="evenodd"
       id="Youtube"
       inkscape:label="Youtube"
       style="stroke-width:0.530339" /></g><use
     x="0"
     y="0"
     xlink:href="#layer3"
     id="use20"
     transform="matrix(0.5020401,0,0,0.5020401,-56.705173,73.091729)" /><use
     x="0"
     y="0"
     xlink:href="#layer3"
     id="use20-9"
     transform="matrix(0.5020401,0,0,0.5020401,10.050553,72.738175)" /><use
     x="0"
     y="0"
     xlink:href="#layer3"
     id="use20-9-6"
     transform="matrix(0.5020401,0,0,0.5020401,-22.062145,72.273709)" /></svg>
