<?xml version="1.0" encoding="UTF-8" standalone="no"?>
<!-- Created with Inkscape (http://www.inkscape.org/) -->

<svg
   width="75"
   height="110"
   viewBox="0 0 75 110"
   version="1.1"
   id="svg1"
   inkscape:version="1.3.2 (091e20e, 2023-11-25, custom)"
   sodipodi:docname="resume_icon.svg"
   xmlns:inkscape="http://www.inkscape.org/namespaces/inkscape"
   xmlns:sodipodi="http://sodipodi.sourceforge.net/DTD/sodipodi-0.dtd"
   xmlns="http://www.w3.org/2000/svg"
   xmlns:svg="http://www.w3.org/2000/svg">
  <sodipodi:namedview
     id="namedview1"
     pagecolor="#ffffff"
     bordercolor="#000000"
     borderopacity="0.25"
     inkscape:showpageshadow="2"
     inkscape:pageopacity="0.0"
     inkscape:pagecheckerboard="0"
     inkscape:deskcolor="#d1d1d1"
     inkscape:document-units="px"
     inkscape:zoom="2.371754"
     inkscape:cx="-50.384652"
     inkscape:cy="7.3785055"
     inkscape:window-width="1920"
     inkscape:window-height="1001"
     inkscape:window-x="-9"
     inkscape:window-y="-9"
     inkscape:window-maximized="1"
     inkscape:current-layer="layer1" />
  <defs
     id="defs1" />
  <g
     inkscape:label="Layer 1"
     inkscape:groupmode="layer"
     id="layer1">
    <path
       style="fill:none;stroke:#100b64;stroke-width:2.09386;stroke-dasharray:none;stroke-opacity:1"
       d="m 64.578046,10.436604 9.327951,-0.08469 V 108.95307 H 1.2434548 L 1.048824,1.049234 C 23.417072,1.09831 64.576111,1.07152 64.576111,1.07152 Z m 10.33528,1.275316"
       id="path4"
       sodipodi:nodetypes="ccccccc" />
    <path
       style="fill:none;stroke:#100b64;stroke-width:2.09386;stroke-dasharray:none;stroke-opacity:1"
       d="M 64.606705,0.86276369 74.255784,10.614641"
       id="path6" />
    <ellipse
       style="fill:none;stroke:#100b64;stroke-width:2.09386;stroke-dasharray:none;stroke-opacity:1"
       id="path7"
       cx="18.762135"
       cy="28.001114"
       rx="9.6643667"
       ry="9.7673302" />
    <path
       style="color:#000000;fill:none;stroke:#100b64;stroke-width:2.32616;stroke-dasharray:none;stroke-opacity:1"
       d="m 19.500604,40.825107 c -3.11305,0 -5.848657,1.89883 -7.725126,4.714696 -20.3780951,30.579793 35.828346,30.579793 15.450252,0 -1.876469,-2.815866 -4.612076,-4.714696 -7.725126,-4.714696 z"
       id="path7-0"
       sodipodi:nodetypes="ssss" />
    <path
       style="fill:none;stroke:#100b64;stroke-width:2.09386;stroke-dasharray:none;stroke-opacity:1"
       d="m 38.713681,16.158398 c 21.625756,0 23.528823,0 23.528823,0 z"
       id="path9-7" />
    <path
       style="fill:none;stroke:#100b64;stroke-width:2.09386;stroke-dasharray:none;stroke-opacity:1"
       d="m 38.713681,20.850186 c 21.625756,0 23.528823,0 23.528823,0 z"
       id="path9-4" />
    <path
       style="fill:none;stroke:#100b64;stroke-width:2.09386;stroke-dasharray:none;stroke-opacity:1"
       d="m 38.713681,25.541973 c 21.625756,0 23.528823,0 23.528823,0 z"
       id="path9" />
    <path
       style="fill:none;stroke:#100b64;stroke-width:2.09386;stroke-dasharray:none;stroke-opacity:1"
       d="m 38.713681,30.23376 c 21.625756,0 23.528823,0 23.528823,0 z"
       id="path9-7-4" />
    <path
       style="fill:none;stroke:#100b64;stroke-width:2.09386;stroke-dasharray:none;stroke-opacity:1"
       d="m 38.713681,34.925549 c 21.625756,0 23.528823,0 23.528823,0 z"
       id="path9-4-0" />
    <path
       style="fill:none;stroke:#100b64;stroke-width:2.09386;stroke-dasharray:none;stroke-opacity:1"
       d="m 38.713681,39.617338 c 21.625756,0 23.528823,0 23.528823,0 z"
       id="path9-3" />
    <path
       style="fill:none;stroke:#100b64;stroke-width:2.09386;stroke-dasharray:none;stroke-opacity:1"
       d="m 38.713681,44.309126 c 21.625756,0 23.528823,0 23.528823,0 z"
       id="path9-7-2" />
    <path
       style="fill:none;stroke:#100b64;stroke-width:2.09386;stroke-dasharray:none;stroke-opacity:1"
       d="m 38.713681,49.000913 c 21.625756,0 23.528823,0 23.528823,0 z"
       id="path9-4-3" />
    <path
       style="fill:none;stroke:#100b64;stroke-width:2.09386;stroke-dasharray:none;stroke-opacity:1"
       d="m 38.713681,53.692703 c 21.625756,0 23.528823,0 23.528823,0 z"
       id="path9-2" />
    <path
       style="fill:none;stroke:#100b64;stroke-width:2.09386;stroke-dasharray:none;stroke-opacity:1"
       d="m 38.713681,58.384492 c 21.625756,0 23.528823,0 23.528823,0 z"
       id="path9-7-4-0" />
    <path
       style="fill:none;stroke:#100b64;stroke-width:2.09386;stroke-dasharray:none;stroke-opacity:1"
       d="m 38.713681,63.076279 c 21.625756,0 23.528823,0 23.528823,0 z"
       id="path9-4-0-7" />
    <path
       style="fill:none;stroke:#100b64;stroke-width:2.09386;stroke-dasharray:none;stroke-opacity:1"
       d="m 38.713681,67.768066 c 21.625756,0 23.528823,0 23.528823,0 z"
       id="path9-3-3" />
    <path
       style="fill:none;stroke:#100b64;stroke-width:2.09386;stroke-dasharray:none;stroke-opacity:1"
       d="m 38.713681,72.459856 c 21.625756,0 23.528823,0 23.528823,0 z"
       id="path9-4-9" />
    <path
       style="fill:none;stroke:#100b64;stroke-width:2.09386;stroke-dasharray:none;stroke-opacity:1"
       d="m 38.713681,77.151644 c 21.625756,0 23.528823,0 23.528823,0 z"
       id="path9-6" />
    <path
       style="fill:none;stroke:#100b64;stroke-width:2.09386;stroke-dasharray:none;stroke-opacity:1"
       d="m 38.713681,81.843431 c 21.625756,0 23.528823,0 23.528823,0 z"
       id="path9-7-4-6" />
    <path
       style="fill:none;stroke:#100b64;stroke-width:2.09386;stroke-dasharray:none;stroke-opacity:1"
       d="m 38.713681,86.535219 c 21.625756,0 23.528823,0 23.528823,0 z"
       id="path9-4-0-2" />
    <path
       style="fill:none;stroke:#100b64;stroke-width:2.09386;stroke-dasharray:none;stroke-opacity:1"
       d="m 38.713681,91.227008 c 21.625756,0 23.528823,0 23.528823,0 z"
       id="path9-3-9" />
    <path
       style="fill:none;stroke:#100b64;stroke-width:2.09386;stroke-dasharray:none;stroke-opacity:1"
       d="m 38.713681,95.918791 c 21.625756,0 23.528823,0 23.528823,0 z"
       id="path9-7-2-2" />
    <path
       style="fill:none;stroke:#100b64;stroke-width:2.09386;stroke-dasharray:none;stroke-opacity:1"
       d="m 38.713681,100.61057 c 21.625756,0 23.528823,0 23.528823,0 z"
       id="path9-4-3-4" />
    <path
       style="fill:none;stroke:#100b64;stroke-width:2.09386;stroke-dasharray:none;stroke-opacity:1"
       d="m 17.823199,100.61057 c 21.625757,0 23.528826,0 23.528826,0 z"
       id="path9-4-3-4-1" />
    <path
       style="fill:none;stroke:#100b64;stroke-width:2.09386;stroke-dasharray:none;stroke-opacity:1"
       d="m 17.823199,72.459856 c 21.625757,0 23.528826,0 23.528826,0 z"
       id="path9-6-9" />
    <path
       style="fill:none;stroke:#100b64;stroke-width:2.09386;stroke-dasharray:none;stroke-opacity:1"
       d="m 17.823199,77.151644 c 21.625757,0 23.528826,0 23.528826,0 z"
       id="path9-7-4-6-4" />
    <path
       style="fill:none;stroke:#100b64;stroke-width:2.09386;stroke-dasharray:none;stroke-opacity:1"
       d="m 17.823199,81.843431 c 21.625757,0 23.528826,0 23.528826,0 z"
       id="path9-4-0-2-9" />
    <path
       style="fill:none;stroke:#100b64;stroke-width:2.09386;stroke-dasharray:none;stroke-opacity:1"
       d="m 17.823199,86.535219 c 21.625757,0 23.528826,0 23.528826,0 z"
       id="path9-3-9-8" />
    <path
       style="fill:none;stroke:#100b64;stroke-width:2.09386;stroke-dasharray:none;stroke-opacity:1"
       d="m 17.823199,91.227008 c 21.625757,0 23.528826,0 23.528826,0 z"
       id="path9-7-2-2-2" />
    <path
       style="fill:none;stroke:#100b64;stroke-width:2.09386;stroke-dasharray:none;stroke-opacity:1"
       d="m 17.823199,95.918791 c 21.625757,0 23.528826,0 23.528826,0 z"
       id="path9-4-3-4-6" />
    <path
       style="fill:none;stroke:#100b64;stroke-width:2.09386;stroke-dasharray:none;stroke-opacity:1"
       d="m 27.107858,72.459856 c 21.625758,0 23.528824,0 23.528824,0 z"
       id="path9-4-9-4" />
    <path
       style="fill:none;stroke:#100b64;stroke-width:2.09386;stroke-dasharray:none;stroke-opacity:1"
       d="m 27.107858,77.151644 c 21.625758,0 23.528824,0 23.528824,0 z"
       id="path9-6-90" />
    <path
       style="fill:none;stroke:#100b64;stroke-width:2.09386;stroke-dasharray:none;stroke-opacity:1"
       d="m 27.107858,81.843431 c 21.625758,0 23.528824,0 23.528824,0 z"
       id="path9-7-4-6-43" />
    <path
       style="fill:none;stroke:#100b64;stroke-width:2.09386;stroke-dasharray:none;stroke-opacity:1"
       d="m 27.107858,86.535219 c 21.625758,0 23.528824,0 23.528824,0 z"
       id="path9-4-0-2-8" />
    <path
       style="fill:none;stroke:#100b64;stroke-width:2.09386;stroke-dasharray:none;stroke-opacity:1"
       d="m 27.107858,91.227008 c 21.625758,0 23.528824,0 23.528824,0 z"
       id="path9-3-9-7" />
    <path
       style="fill:none;stroke:#100b64;stroke-width:2.09386;stroke-dasharray:none;stroke-opacity:1"
       d="m 27.107858,95.918791 c 21.625758,0 23.528824,0 23.528824,0 z"
       id="path9-7-2-2-0" />
    <path
       style="fill:none;stroke:#100b64;stroke-width:2.09386;stroke-dasharray:none;stroke-opacity:1"
       d="m 27.107858,100.61057 c 21.625758,0 23.528824,0 23.528824,0 z"
       id="path9-4-3-4-17" />
    <path
       style="fill:none;stroke:#100b64;stroke-width:2.09386;stroke-dasharray:none;stroke-opacity:1"
       d="m 6.217378,100.61057 c 21.625756,0 23.528823,0 23.528823,0 z"
       id="path9-4-3-4-1-7" />
    <path
       style="fill:none;stroke:#100b64;stroke-width:2.09386;stroke-dasharray:none;stroke-opacity:1"
       d="m 6.217378,72.459856 c 21.625756,0 23.528823,0 23.528823,0 z"
       id="path9-6-9-2" />
    <path
       style="fill:none;stroke:#100b64;stroke-width:2.09386;stroke-dasharray:none;stroke-opacity:1"
       d="m 6.217378,77.151644 c 21.625756,0 23.528823,0 23.528823,0 z"
       id="path9-7-4-6-4-2" />
    <path
       style="fill:none;stroke:#100b64;stroke-width:2.09386;stroke-dasharray:none;stroke-opacity:1"
       d="m 6.217378,81.843431 c 21.625756,0 23.528823,0 23.528823,0 z"
       id="path9-4-0-2-9-6" />
    <path
       style="fill:none;stroke:#100b64;stroke-width:2.09386;stroke-dasharray:none;stroke-opacity:1"
       d="m 6.217378,86.535219 c 21.625756,0 23.528823,0 23.528823,0 z"
       id="path9-3-9-8-0" />
    <path
       style="fill:none;stroke:#100b64;stroke-width:2.09386;stroke-dasharray:none;stroke-opacity:1"
       d="m 6.217378,91.227008 c 21.625756,0 23.528823,0 23.528823,0 z"
       id="path9-7-2-2-2-4" />
    <path
       style="fill:none;stroke:#100b64;stroke-width:2.09386;stroke-dasharray:none;stroke-opacity:1"
       d="m 6.217378,95.918791 c 21.625756,0 23.528823,0 23.528823,0 z"
       id="path9-4-3-4-6-4" />
    <path
       style="fill:#e6e6e6;stroke:#100b64;stroke-width:0.220014;stroke-dasharray:none;stroke-opacity:1"
       d="M 2.373025,83.069279 C 2.372977,69.415638 2.3098506,45.650238 2.2327351,30.257279 L 2.0925332,2.2700809 H 32.803087 63.513641 V 6.9082605 11.54644 h 4.638247 4.638247 V 59.720261 107.89408 H 37.581624 2.373112 Z M 62.248664,100.62058 V 99.461031 H 34.208352 6.1680414 v 1.159549 1.15955 H 34.208352 62.248664 Z m 0,-4.638186 V 94.822848 H 34.208352 6.1680414 v 1.159546 1.159545 H 34.208352 62.248664 Z m 0,-4.743594 V 90.184668 H 34.208352 6.1680414 V 91.2388 92.292932 H 34.208352 62.248664 Z m 0,-4.743592 V 85.335662 H 34.208352 6.1680414 v 1.159546 1.159544 H 34.208352 62.248664 Z m 0,-4.63818 V 80.697483 H 34.208352 6.1680414 v 1.159545 1.159544 H 34.208352 62.248664 Z m 0,-4.63818 V 76.059304 H 34.208352 6.1680414 v 1.159544 1.159545 H 34.208352 62.248664 Z m 0,-4.849006 V 71.210298 H 34.208352 6.1680414 v 1.159544 1.159544 H 34.208352 62.248664 Z M 23.772297,69.201396 c 4.572766,-1.226366 8.094232,-4.654384 8.938096,-8.700914 0.66927,-3.209314 -0.0058,-7.258221 -1.855819,-11.131051 -3.356592,-7.02662 -7.059954,-10.034632 -11.976654,-9.727895 -4.279777,0.267002 -7.434552,3.068416 -10.503003,9.326581 -3.4210658,6.977327 -3.1187273,12.873862 0.8643164,16.856848 1.8098476,1.809823 4.0656526,2.963363 7.0486196,3.604421 1.717661,0.369133 5.711577,0.247472 7.484444,-0.22799 z M 62.248664,67.731662 V 66.572117 H 50.442218 38.635771 v 1.159545 1.159545 h 11.806447 11.806446 z m 0,-4.63818 V 61.933937 H 50.442218 38.635771 v 1.159545 1.159546 h 11.806447 11.806446 z m 0,-4.638178 V 57.295757 H 50.442218 38.635771 v 1.159547 1.159544 h 11.806447 11.806446 z m 0,-4.849007 V 52.446752 H 50.442218 38.635771 v 1.159545 1.159545 h 11.806447 11.806446 z m 0,-4.63818 V 47.808572 H 50.442218 38.635771 v 1.159545 1.159545 h 11.806447 11.806446 z m 0,-4.63818 V 43.170392 H 50.442218 38.635771 v 1.159545 1.159545 h 11.806447 11.806446 z m 0,-4.63818 V 38.532213 H 50.442218 38.635771 v 1.159544 1.159547 H 50.442218 62.248664 Z M 21.062673,38.641983 c 4.787335,-1.128928 8.108658,-5.027449 8.437694,-9.904041 C 29.879418,23.120108 25.911208,18.103128 20.399026,17.231178 14.983099,16.374456 9.7256729,19.843996 8.2813575,25.22801 7.8439614,26.858503 7.9715624,29.870939 8.5482643,31.529221 10.38739,36.817549 15.786462,39.886198 21.062673,38.641983 Z M 62.248664,34.842751 V 33.683206 H 50.442218 38.635771 v 1.159545 1.159546 h 11.806447 11.806446 z m 0,-4.638179 V 29.045027 H 50.442218 38.635771 v 1.159545 1.159545 h 11.806447 11.806446 z m 0,-4.63818 V 24.406848 H 50.442218 38.635771 v 1.159544 1.159545 h 11.806447 11.806446 z m 0,-4.638179 V 19.768668 H 50.442218 38.635771 v 1.159545 1.159544 h 11.806447 11.806446 z m 0,-4.849007 V 14.919662 H 50.442218 38.635771 v 1.159544 1.159545 h 11.806447 11.806446 z"
       id="path18" />
    <path
       style="fill:#e6e6e6;stroke:#100b64;stroke-width:0.220014;stroke-dasharray:none;stroke-opacity:1"
       d="m 16.526271,66.879713 c -1.972679,-0.428032 -3.879936,-1.403609 -5.218212,-2.669157 -3.4207286,-3.234829 -3.6626378,-7.95999 -0.715591,-13.977481 2.005427,-4.094826 3.819135,-6.313646 6.060586,-7.414288 1.028779,-0.50517 1.475725,-0.596878 2.902656,-0.595586 1.518736,0.0014 1.819515,0.07341 3.021496,0.723714 1.626198,0.879807 3.142248,2.505871 4.561518,4.892527 4.08422,6.868056 4.352259,12.615377 0.756064,16.211519 -2.533446,2.533411 -7.283039,3.71522 -11.368517,2.828752 z"
       id="path19" />
    <path
       style="fill:#e6e6e6;stroke:#100b64;stroke-width:0.220014;stroke-dasharray:none;stroke-opacity:1"
       d="m 16.686842,36.342736 c -3.342958,-0.968496 -5.722525,-3.643866 -6.306428,-7.09038 -0.6042295,-3.566482 1.456967,-7.451444 4.767923,-8.986626 3.297156,-1.528781 6.69219,-0.993032 9.304421,1.468271 1.286257,1.211943 1.986851,2.329757 2.458974,3.923363 1.222773,4.12734 -1.113525,8.836006 -5.142314,10.364018 -1.44699,0.548804 -3.786839,0.696746 -5.082576,0.321354 z"
       id="path20" />
    <path
       style="fill:#e6e6e6;stroke:#100b64;stroke-width:0.220014;stroke-dasharray:none;stroke-opacity:1"
       d="m 65.621936,6.4369429 v -2.790407 l 2.740781,2.7346588 c 1.507431,1.5040619 2.740782,2.7597459 2.740782,2.7904075 0,0.030662 -1.233351,0.055743 -2.740782,0.055743 h -2.740781 z"
       id="path21" />
  </g>
</svg>
