<?xml version="1.0" encoding="UTF-8" standalone="no"?>
<!-- Created with Inkscape (http://www.inkscape.org/) -->

<svg
   width="4.0577426in"
   height="4.3023071in"
   viewBox="0 0 103.06666 109.2786"
   version="1.1"
   id="svg1"
   xml:space="preserve"
   sodipodi:docname="roger_circle_output.svg"
   inkscape:version="1.3.2 (091e20e, 2023-11-25, custom)"
   xmlns:inkscape="http://www.inkscape.org/namespaces/inkscape"
   xmlns:sodipodi="http://sodipodi.sourceforge.net/DTD/sodipodi-0.dtd"
   xmlns="http://www.w3.org/2000/svg"
   xmlns:svg="http://www.w3.org/2000/svg"><sodipodi:namedview
     id="namedview1"
     pagecolor="#ffffff"
     bordercolor="#000000"
     borderopacity="0.25"
     inkscape:showpageshadow="2"
     inkscape:pageopacity="0.0"
     inkscape:pagecheckerboard="0"
     inkscape:deskcolor="#d1d1d1"
     inkscape:document-units="in"
     inkscape:zoom="1.8183073"
     inkscape:cx="194.68656"
     inkscape:cy="206.51074"
     inkscape:window-width="1920"
     inkscape:window-height="986"
     inkscape:window-x="2869"
     inkscape:window-y="-11"
     inkscape:window-maximized="1"
     inkscape:current-layer="svg1" /><defs
     id="defs1"><clipPath
       clipPathUnits="userSpaceOnUse"
       id="clipPath8"><circle
         style="display:inline;opacity:0.332;fill:#ffffff;fill-opacity:1;stroke:#000000;stroke-width:0;stroke-dasharray:none;stroke-opacity:1"
         id="circle8"
         cx="50.880657"
         cy="39.121437"
         r="24.902405"
         transform="rotate(8.8433788e-4)" /></clipPath><clipPath
       clipPathUnits="userSpaceOnUse"
       id="clipPath9"><circle
         style="display:inline;opacity:0.332;fill:#ffffff;fill-opacity:1;stroke:#000000;stroke-width:0;stroke-dasharray:none;stroke-opacity:1"
         id="circle9"
         cx="50.880657"
         cy="39.121437"
         r="24.902405"
         transform="rotate(8.8433788e-4)" /></clipPath><clipPath
       clipPathUnits="userSpaceOnUse"
       id="clipPath10"><circle
         style="display:inline;opacity:0.332;fill:#ffffff;fill-opacity:1;stroke:#000000;stroke-width:0;stroke-dasharray:none;stroke-opacity:1"
         id="circle10"
         cx="50.880657"
         cy="39.121437"
         r="24.902405"
         transform="rotate(8.8433791e-4)" /></clipPath><clipPath
       clipPathUnits="userSpaceOnUse"
       id="clipPath11"><circle
         style="display:inline;opacity:0.332;fill:#ffffff;fill-opacity:1;stroke:#000000;stroke-width:0;stroke-dasharray:none;stroke-opacity:1"
         id="circle11"
         cx="50.880657"
         cy="39.121437"
         r="24.902405"
         transform="rotate(8.8433791e-4)" /></clipPath><clipPath
       clipPathUnits="userSpaceOnUse"
       id="clipPath12"><circle
         style="display:inline;opacity:0.332;fill:#ffffff;fill-opacity:1;stroke:#000000;stroke-width:0;stroke-dasharray:none;stroke-opacity:1"
         id="circle12"
         cx="50.880657"
         cy="39.121437"
         r="24.902405"
         transform="rotate(8.8433791e-4)" /></clipPath><clipPath
       clipPathUnits="userSpaceOnUse"
       id="clipPath13"><circle
         style="display:inline;opacity:0.332;fill:#ffffff;fill-opacity:1;stroke:#000000;stroke-width:0;stroke-dasharray:none;stroke-opacity:1"
         id="circle13"
         cx="50.880657"
         cy="39.121437"
         r="24.902405"
         transform="rotate(8.8433791e-4)" /></clipPath><clipPath
       clipPathUnits="userSpaceOnUse"
       id="clipPath14"><circle
         style="display:inline;opacity:0.332;fill:#ffffff;fill-opacity:1;stroke:#000000;stroke-width:0;stroke-dasharray:none;stroke-opacity:1"
         id="circle14"
         cx="50.880657"
         cy="39.121437"
         r="24.902405"
         transform="rotate(8.8433791e-4)" /></clipPath><clipPath
       clipPathUnits="userSpaceOnUse"
       id="clipPath15"><circle
         style="display:inline;opacity:0.332;fill:#ffffff;fill-opacity:1;stroke:#000000;stroke-width:0;stroke-dasharray:none;stroke-opacity:1"
         id="circle15"
         cx="50.880657"
         cy="39.121437"
         r="24.902405"
         transform="rotate(8.8433791e-4)" /></clipPath><clipPath
       clipPathUnits="userSpaceOnUse"
       id="clipPath16"><circle
         style="display:inline;opacity:0.332;fill:#ffffff;fill-opacity:1;stroke:#000000;stroke-width:0;stroke-dasharray:none;stroke-opacity:1"
         id="circle16"
         cx="62.441666"
         cy="75.466675"
         r="51.533333" /></clipPath></defs><g
     id="layer6"
     transform="translate(-10.908333,-17.721406)"
     style="display:inline"><rect
       style="fill:#b6cbcf;fill-opacity:1;stroke:#65282a;stroke-width:0;stroke-linecap:round;stroke-dasharray:none;stroke-opacity:1"
       id="rect26"
       width="143.8515"
       height="133.80702"
       x="-4.1164861"
       y="-0.92362368"
       clip-path="url(#clipPath16)" /></g><g
     id="layer3"
     style="display:inline;opacity:1"
     transform="matrix(2.0694119,-3.1940562e-5,3.1940562e-5,2.0694119,-53.759707,-23.213103)"><path
       style="display:inline;fill:#b095bc;fill-opacity:1;stroke:#553d61;stroke-width:0.724844;stroke-dasharray:none;stroke-opacity:1"
       d="m 54.583956,48.260309 c -0.01157,1.818695 -0.483666,8.213091 0.05175,10.396438 -2.052246,5.429319 -2.197569,11.702517 -2.476903,16.737855 -1.051642,10.03354 1.416272,16.547522 4.728632,22.217057 L 68.296196,84.251405 77.75346,70.891143 85.634512,59.782612 67.54562,51.676385 Z"
       id="path18"
       clip-path="url(#clipPath15)" /><path
       style="opacity:1;fill:#8da1c6;fill-opacity:1;stroke:#354769;stroke-width:0.724844;stroke-dasharray:none;stroke-opacity:1"
       d="m 78.053689,40.117509 c 1.241079,2.449626 2.111606,2.378907 3.116139,4.446034 0.784608,1.614563 0.892496,5.078243 3.717035,10.525056 0.897987,1.731668 2.779008,3.157747 4.125243,5.444589 -8.09853,22.255606 -17.577922,6.594375 -24.633341,6.944644 C 60.61026,56.399451 70.86303,45.785831 74.150693,34.938531 Z"
       id="path17"
       clip-path="url(#clipPath14)" /><path
       style="display:inline;opacity:1;fill:#92beba;fill-opacity:1;stroke:#3e605b;stroke-width:0.724844;stroke-dasharray:none;stroke-opacity:1"
       d="m 78.313249,38.450817 c 2.480453,2.664893 3.518677,5.580586 4.049339,8.584542 0.316901,0.97865 1.187519,1.579447 0.431984,2.587307 -0.78702,1.049859 -2.425308,-1.518306 -2.535385,-1.485635 -0.526988,0.156412 2.099411,3.645449 0.08233,5.076107 -1.021885,0.724792 -4.057992,-0.658576 -4.092024,-0.416221 -0.07796,1.222675 1.124954,2.518977 -0.361198,3.80045 -1.63078,1.406182 -3.513416,-1.305771 -3.824365,-1.188765 -0.495731,0.186537 -0.539686,2.925976 -3.19853,2.473534 -1.380466,-0.294344 -0.913836,-2.531643 -1.237468,-2.189527 -0.0205,0.02168 -1.636306,1.346332 -2.938506,0.892775 -0.964084,-0.335793 -0.63682,-2.355401 -0.495474,-2.591158 0.18113,-0.302114 -1.606712,2.289169 -3.524779,1.557055 C 59.343907,55.045437 59.43296,53.537105 59.148399,53.13208 58.260704,53.07449 57.865806,53.454942 56.254766,52.754366 55.216385,52.361545 55.109272,51.099577 54.58366,50.22819 L 53.56919,46.429274 76.03733,35.967749 Z"
       id="path16"
       clip-path="url(#clipPath13)" /><path
       style="display:inline;opacity:1;fill:#8da1c6;fill-opacity:1;stroke:#354769;stroke-width:0.724844;stroke-dasharray:none;stroke-opacity:1"
       d="m 47.80546,33.287264 c 1.084079,-1.907124 2.948423,-3.307752 5.366338,-4.535304 2.417916,-1.227552 9.647563,-2.589113 13.698303,-1.018962 4.050741,1.57015 9.757493,8.93186 9.757493,8.93186 0.49711,1.560376 -3.442919,1.347056 -3.442919,1.347056 0,0 2.127879,2.950345 1.803498,3.535404 -0.324381,0.585059 -2.244744,1.103469 -3.579487,-0.654282 -0.18459,-0.24309 2.074022,3.900353 0.754883,5.077099 -2.126079,1.896582 -4.628006,-0.382475 -5.664252,-0.384725 0.682788,1.088509 2.979118,1.568172 0.950339,4.061531 -2.337052,2.005259 -6.220046,-1.181999 -6.884936,-1.472988 0.564371,0.679124 3.076287,3.280158 0.855258,3.60447 -3.744371,0.906229 -4.288618,-0.629665 -5.021589,-2.021536 0.632278,1.001662 0.691439,2.020679 -0.379772,3.085406 -0.525097,0.856926 -2.284378,-1.332681 -2.283603,-2.592001 -0.453108,-1.472888 -0.754238,-2.303234 -2.948446,-4.034775 -0.601185,-0.474421 -5.419206,0.285264 -6.400684,0.591916 -1.781503,0.556612 2.079157,-6.110317 1.843366,-7.290384 -0.5986,-2.995822 0.49213,-4.322662 1.57621,-6.229785 z"
       id="path10"
       clip-path="url(#clipPath12)" /><g
       id="layer4"
       style="display:inline;opacity:1"><circle
         style="display:inline;opacity:0.633;fill:#f68768;fill-opacity:1;stroke:#65282a;stroke-width:0.445534;stroke-dasharray:none;stroke-opacity:1"
         id="path13"
         cx="57.750599"
         cy="37.115204"
         r="1.9514989"
         clip-path="url(#clipPath11)" /><circle
         style="opacity:0.633;fill:#000000;fill-opacity:1;stroke:#000000;stroke-width:0.72814;stroke-dasharray:none"
         id="path14"
         cx="57.317902"
         cy="37.254646"
         r="0.4600026"
         clip-path="url(#clipPath10)" /></g></g><g
     id="layer1"
     transform="matrix(0.86316081,-0.06606191,0.05902775,0.77125293,1.1982132,-16.285203)"
     style="display:inline"><path
       id="path1-0"
       clip-path="none"
       style="display:inline;fill:#476e93;fill-opacity:1;stroke:#2e455b;stroke-width:1.12835;stroke-dasharray:none;stroke-opacity:1"
       d="m 30.233219,30.193993 c -1.470109,1.554726 -3.118491,3.485332 -5.035925,5.836037 0,0 -0.678534,1.220727 -1.617363,3.036026 -0.103941,0.200961 -0.88841,2.09677 -0.7038,3.385571 0.217492,1.518239 0.922732,2.148199 1.187903,2.87557 -0.774261,-0.571137 -1.412221,-1.348699 -1.578534,-1.668402 -0.451033,-0.86701 -0.473134,-1.816396 -0.585653,-1.585933 -1.420909,2.908508 -3.925896,5.778974 -4.264887,9.611882 -0.52323,5.916025 -0.716105,5.800612 4.390924,13.074086 -2.334596,-1.329839 -2.254339,-1.067093 -4.786478,-3.823523 -1.935801,-2.107334 -2.251724,-3.885022 -2.251724,-3.885022 0,0 0.25378,8.366678 0.705061,11.397071 0.363393,2.775408 0.554901,3.202853 5.073764,9.068248 -0.946423,-0.531383 -3.044316,-1.754753 -4.329955,-3.212457 -1.538051,-1.744009 -1.472629,-2.677922 -2.198458,-3.609135 -0.0016,1.735387 -0.245905,4.360814 0.0097,6.727511 0.215532,1.995905 0.634005,3.707896 1.013763,4.434915 0.633677,1.213184 0.954275,2.929679 2.903746,4.173347 1.895394,1.209213 2.892391,1.876442 4.330499,2.700403 -1.975149,-0.214573 -2.604214,0.452198 -4.939298,-0.863417 -1.952399,-1.100135 -2.638225,-3.2726 -3.185276,-4.160862 -0.737993,3.739582 4.465079,9.116226 5.753637,11.009481 0.232281,0.341447 1.651758,1.900623 2.819347,2.690806 1.167597,0.790163 2.076835,1.165564 3.005781,1.753831 -1.28792,-0.378976 -1.793143,-0.244213 -3.252172,-1.189406 -1.459011,-0.945201 -2.875713,-2.346763 -2.8892,-2.228646 2.454946,3.114361 4.828799,9.097345 7.441171,10.675865 l 1.741996,-0.3758 c 3.580636,-4.77104 7.664622,-12.167079 9.649945,-19.411855 2.033173,-5.127256 1.503849,-6.874943 0.308929,-10.564453 0.490679,-0.604061 -1.200118,10.872732 -9.719564,17.553075 -0.0331,-1.287803 11.227745,-16.733871 8.988053,-27.349752 -0.315386,-1.494912 -0.39386,-6.537904 -0.74557,-7.867582 -0.09146,-0.345769 -0.599254,7.460138 -3.003597,13.265052 -2.455464,5.92839 -5.451228,10.018542 -6.540865,12.264646 0.695072,-2.448003 2.746055,-6.402038 4.654419,-12.497118 2.502486,-5.636904 3.13557,-11.265938 4.351927,-17.24817 1.048389,-4.977579 0.617194,-13.540384 0.617194,-13.540384 0,0 0.246362,7.46222 -2.69047,12.980439 -2.936825,5.518228 -7.943973,12.279398 -7.943973,12.279398 0,0 3.695848,-7.245587 6.604061,-14.777158 2.537196,-6.570682 1.472139,-13.368528 1.480263,-13.860097 0.08452,-5.1213 0.325224,-9.358091 1.514233,-11.917873 -1.878362,0.706044 -3.833336,2.252621 -6.283542,4.843785 z" /><path
       style="display:inline;fill:#e1e1e1;fill-opacity:1;stroke:#4f4f4f;stroke-width:1.01552;stroke-dasharray:none;stroke-opacity:1"
       d="m 35.526173,137.60611 0.103392,-3.52581 c 0.02097,-0.71507 0.822351,-1.75985 0.730862,-2.69428 -0.134022,-1.36903 -2.799468,-3.40132 -2.799468,-3.40132 0,0 0.08226,-1.21554 0.181667,-1.33044 -1.489857,-7.57927 -3.65115,-15.1331 -5.303158,-22.78473 -0.848307,-3.92912 -1.502421,-7.892479 -1.98218,-11.881412 -1.924641,-16.002352 -0.442955,-32.273202 0.419141,-46.40715 -0.516949,-0.739484 -4.129829,21.988667 -2.450115,46.442506 0.884122,12.871356 3.853581,25.754546 7.284498,36.815556 0.42022,1.33295 -0.810133,0.49822 -0.475124,1.60163 0.964593,3.17715 2.602109,4.75544 2.602109,4.75544 z"
       id="path2-0" /><path
       style="fill:#4f4f4f;fill-opacity:1;stroke:#4f4f4f;stroke-width:0.323842;stroke-dasharray:none;stroke-opacity:1"
       d="m 35.228519,137.00572 -2.457362,-5.52787 0.253922,-0.88345 0.217746,1.62647 z"
       id="path4" /></g><g
     id="layer5"
     style="display:inline;opacity:1"
     transform="matrix(2.0694119,-3.1940561e-5,3.1940561e-5,2.0694119,-53.759707,-23.213103)"><g
       id="layer2"
       style="display:none;opacity:1"
       transform="matrix(0.43562128,-0.20915176,0.20915176,0.43562126,0.38557688,13.404856)"><path
         style="display:inline;opacity:1;fill:#476e93;fill-opacity:1;stroke:#2e455b;stroke-width:1;stroke-dasharray:none;stroke-opacity:1"
         d="m 49.043865,92.093363 c -1.728632,-2.397102 -2.800581,-7.307518 -2.825758,-11.860221 0.06886,-0.104147 0.282139,1.696514 0.755229,3.091287 0.473113,1.394772 0.87201,1.451466 1.521294,2.26261 -0.308109,-0.875556 -0.711588,-1.547537 -1.073014,-2.694861 -0.361415,-1.147335 -0.496439,-3.094297 -0.474632,-3.492496 0.120656,-2.208218 -0.545943,-9.032422 1.83899,-12.217501 -0.0942,1.015418 -0.261928,2.726377 0.454939,4.440891 0.857451,2.050423 1.118955,2.199475 2.301196,3.105259 -0.521102,-1.275448 -0.842666,-1.730574 -1.466766,-3.525273 -0.641931,-1.845867 0.0308,-4.061951 0.233663,-5.408146 0.121562,-0.806731 0.718822,-2.535819 1.593261,-4.454173 1.036891,-2.274747 2.532282,-4.608893 3.416182,-6.209111 8.32e-4,1.119114 -0.517164,1.957024 -0.398741,4.116986 0.09901,1.805394 0.848298,3.685697 1.196766,4.515047 -0.749379,-4.154746 -1.123458,-5.990969 0.123099,-8.948059 1.246576,-2.957095 6.509745,-12.000893 6.509745,-12.000893 0,0 -0.697813,1.753069 -0.504194,4.390718 0.253314,3.450116 0.334673,3.178929 1.18457,5.242297 -0.811275,-8.057626 0.344639,-8.329549 3.780009,-13.633633 2.197481,-3.392823 5.2699,-5.164366 7.678551,-7.338088 0.190845,-0.172237 -0.277749,0.711281 -0.423914,1.67269 -0.0539,0.35451 -0.0324,1.300313 0.18328,2.104635 0.19669,-0.765977 0.05594,-1.599549 0.686107,-3.077984 0.534939,-1.255009 2.012321,-2.722841 2.182511,-2.870964 1.537324,-1.338062 2.60195,-2.220745 2.60195,-2.220745 6.532092,-3.949957 10.294413,-5.830162 12.834093,-5.795161 -2.079628,1.935146 -4.392382,5.757273 -7.052988,10.451107 -0.255378,0.450535 -3.035642,8.13859 -8.037185,13.290408 -5.732965,5.905225 -11.817021,10.228627 -11.817021,10.228627 0,0 6.713255,-4.44243 11.440694,-8.480201 4.727439,-4.037763 8.362612,-11.00938 8.362612,-11.00938 0,0 -4.074145,8.053113 -7.29183,12.268935 -1.283675,1.681883 -2.49803,3.456281 -3.849004,5.384795 -2.035378,2.905507 -4.38088,6.160835 -7.740819,9.976675 -4.348455,4.938471 -7.731164,6.840216 -9.430986,8.849269 1.855086,-1.681404 5.894602,-4.380791 10.515972,-8.969419 4.52513,-4.493052 8.104322,-11.250325 7.988217,-10.898597 -0.446488,1.352602 -3.06871,5.857632 -3.512062,7.352119 -0.43373,1.462061 -2.861819,6.019946 -3.101873,6.881549 -0.240043,0.861608 -4.290093,4.928422 -8.74628,9.25013 -3.365731,3.264142 -6.925243,5.214646 -7.220941,5.787103 0.812822,-0.419193 4.056023,-2.260997 7.254702,-5.028689 4.056687,-3.510096 8.128216,-8.02416 8.029755,-7.679863 -1.095679,3.831597 -2.283557,7.580332 -4.119562,11.620439 -0.240713,0.529691 -0.486892,1.067515 -0.738894,1.6148 -1.60653,3.489011 -10.289889,9.332051 -13.171235,11.253236 z"
         id="path1" /><path
         style="display:inline;opacity:1;fill:#e1e1e1;fill-opacity:1;stroke:#4f4f4f;stroke-width:0.9;stroke-dasharray:none;stroke-opacity:1"
         d="m 46.611254,112.87961 c 0,0 0.465464,-1.88916 1.271472,-4.15337 0.243587,-0.68428 0.852695,-0.80454 1.067481,-1.67215 0.314683,-1.27113 0.244632,-4.68562 0.244632,-4.68562 0,0 0.175437,-0.0453 0.302757,-0.18155 0.370805,-2.289958 0.67982,-5.076178 1.012776,-8.004373 0.654337,-5.754665 1.401094,-12.057687 2.890806,-16.220038 4.800224,-13.412176 23.565483,-44.364491 23.565483,-44.364491 0,0 -22.330814,33.133979 -26.230117,46.672539 -2.320806,8.057945 -3.340358,18.075559 -3.785495,24.865623 -0.07804,1.19047 -0.138431,2.28173 -0.185078,3.24582 -0.134314,2.77596 -0.154715,4.49762 -0.154715,4.49762 z"
         id="path2" /><path
         style="fill:#000000;fill-opacity:1;stroke:#404040;stroke-width:0.445534;stroke-dasharray:none;stroke-opacity:1"
         d="m 47.936628,103.98283 c 0,0 -0.590276,1.51912 -0.806005,2.79032 -0.215723,1.27129 -0.368123,5.61766 -0.368123,5.61766 0,0 0.17293,-4.28247 0.341425,-5.55572 0.168487,-1.27321 0.832703,-2.85226 0.832703,-2.85226 z"
         id="path3" /></g><path
       style="display:inline;opacity:1;fill:#8886ad;fill-opacity:1;stroke:#41405e;stroke-width:0.724844;stroke-dasharray:none;stroke-opacity:1"
       d="m 49.231555,41.918893 c -0.389746,-1.076134 -0.213357,-2.05814 -2.664547,-1.989027 -2.962037,2.373508 -5.5242,6.466326 -4.953804,8.519044 2.288339,-1.379761 2.172519,-1.317703 4.157623,-2.287767 l 2.156585,-0.817411 z"
       id="path11"
       clip-path="url(#clipPath9)" /><path
       style="fill:#fdfbfd;fill-opacity:1;stroke:#4f4f4f;stroke-width:0.483229;stroke-dasharray:none;stroke-opacity:1"
       d="m 46.304307,40.004922 c 1.64285,-0.752809 5.026572,1.522874 4.240757,1.9515 l -2.101613,1.200921 c -2.233888,0.59716 -3.957963,1.259338 -6.004613,2.627018 l 0.863164,-2.439373 c 0.749616,-1.745245 1.952986,-2.294126 3.002305,-3.340066 z"
       id="path15"
       clip-path="url(#clipPath8)" /></g><g
     id="layer7"
     style="display:inline"><path
       d="m 61.344944,12.971186 q 0.341261,1.021365 0.630584,1.785552 0.290201,0.759971 0.540568,1.331273 0.251247,0.567087 0.466695,0.968343 0.215448,0.401256 0.408962,0.696759 0.140131,0.213985 0.265518,0.372107 0.130482,0.154786 0.257109,0.264777 0.127507,0.105775 0.255374,0.167636 0.127868,0.06186 0.2712,0.09175 0.168627,0.03517 0.362908,0.0317 0.198497,-0.0026 0.44109,-0.02678 l 0.04594,0.370302 q -0.329904,0.06317 -0.603066,0.107373 -0.268067,0.04087 -0.492039,0.06014 -0.220635,0.02437 -0.399631,0.01783 -0.179876,-0.0023 -0.327425,-0.0331 -0.143332,-0.02989 -0.266984,-0.09088 -0.119436,-0.0601 -0.231838,-0.153929 -0.109066,-0.08873 -0.215314,-0.212069 -0.105369,-0.127553 -0.21723,-0.287252 -0.187021,-0.263356 -0.419151,-0.690087 -0.227035,-0.430066 -0.500578,-1.058991 -0.268447,-0.632261 -0.5841,-1.481121 -0.314773,-0.853077 -0.673934,-1.957358 l 0.01564,-0.05392 0.404278,-0.377582 q 0.891132,-0.834721 1.645041,-1.517701 0.754787,-0.687195 1.388672,-1.15326 0.63898,-0.4694017 1.168644,-0.688862 0.533881,-0.2185811 0.984957,-0.1245044 0.19392,0.040444 0.325823,0.1251413 0.132782,0.080481 0.207062,0.1883533 0.0785,0.108751 0.09604,0.2355818 0.02175,0.12771 -0.0055,0.258396 -0.0422,0.202351 -0.181366,0.384481 -0.139163,0.18213 -0.34945,0.28344 l -0.03373,-0.007 q -0.127483,-0.211347 -0.291353,-0.311509 -0.158774,-0.103499 -0.327401,-0.138668 -0.341469,-0.07122 -0.78558,0.117697 -0.443232,0.184699 -0.968185,0.550309 -0.520738,0.366491 -1.105974,0.873495 -0.58102,0.507884 -1.202281,1.082159 z M 59.913887,9.5186164 q 0.04132,-0.1981361 0.04083,-0.3434075 0.0046,-0.1486079 -0.05282,-0.2529628 -0.05742,-0.1043549 -0.184407,-0.1704309 -0.121893,-0.069412 -0.32846,-0.1124944 -0.278234,-0.058029 -0.725636,-0.085354 l 0.03082,-0.3586922 q 0.643802,-0.028492 1.08541,-0.015573 0.442487,0.0087 0.729153,0.068491 0.282449,0.058908 0.426818,0.1682002 0.145249,0.1050767 0.190358,0.2684508 0.0502,0.1600378 0.02311,0.3743378 -0.0271,0.2143 -0.08337,0.4841024 -0.01495,0.071666 -0.07525,0.3186319 -0.05609,0.2478449 -0.150505,0.6372639 -0.08932,0.386083 -0.213447,0.896876 -0.124128,0.510794 -0.267598,1.114333 -0.142592,0.599323 -0.305225,1.273648 -0.161753,0.67011 -0.332299,1.382377 -0.169667,0.708051 -0.348825,1.440516 -0.174063,0.72913 -0.345488,1.445612 l -1.025489,-0.08191 -0.07412,-0.02426 q 0.303804,-1.20356 0.569463,-2.287504 0.270754,-1.08728 0.514794,-2.109747 0.244919,-1.026683 0.465062,-2.018942 0.225238,-0.995595 0.437131,-2.0115696 z m 9.768161,10.3751976 q 0.01932,0.02148 0.04593,0.05971 0.0322,0.0358 0.05322,0.07646 0.0226,0.03665 0.03404,0.07817 0.01301,0.03751 0.002,0.06556 -0.0063,0.01603 -0.02463,0.02733 -0.347365,0.224325 -0.699274,0.354312 -0.346325,0.127556 -0.688325,0.173519 -0.336416,0.04353 -0.653332,0.0022 -0.318491,-0.03734 -0.59902,-0.147673 -0.480907,-0.18914 -0.804431,-0.543127 -0.323524,-0.353988 -0.478094,-0.808114 -0.154569,-0.454127 -0.139196,-0.975612 0.02096,-0.523916 0.227435,-1.048906 0.16865,-0.428809 0.429474,-0.821366 0.264832,-0.390981 0.594053,-0.710363 0.333228,-0.317805 0.720534,-0.549558 0.388882,-0.23576 0.809641,-0.352552 0.426342,-0.119222 0.870241,-0.106599 0.447907,0.0142 0.896754,0.190731 0.296559,0.116637 0.533542,0.302391 0.236983,0.185755 0.377467,0.416851 0.146067,0.228664 0.179605,0.496365 0.03354,0.267701 -0.0768,0.54823 -0.160769,0.408771 -0.549064,0.607742 -0.384288,0.200547 -0.93671,0.228536 -0.552421,0.02799 -1.241636,-0.09037 -0.683632,-0.120793 -1.446242,-0.346687 l -0.0268,0.06813 q -0.201749,0.512968 -0.240581,0.988207 -0.03483,0.476814 0.07382,0.871231 0.110218,0.390408 0.352601,0.680091 0.242383,0.289682 0.599056,0.429961 0.36068,0.141856 0.806742,0.113683 0.451646,-0.0306 0.997996,-0.278472 z m 0.512243,-3.51439 q 0.0725,-0.184348 0.07143,-0.369869 0.0029,-0.183945 -0.06357,-0.344297 -0.06092,-0.162783 -0.186411,-0.290806 -0.125493,-0.128023 -0.301825,-0.197374 -0.260492,-0.102451 -0.509144,-0.09381 -0.248653,0.0086 -0.480017,0.10274 -0.229788,0.0901 -0.441567,0.252059 -0.210203,0.157955 -0.39537,0.35815 -0.181161,0.20177 -0.334989,0.428172 -0.153828,0.226403 -0.270868,0.453391 0.584835,0.183741 1.07151,0.26409 0.492259,0.07792 0.860735,0.047 0.37406,-0.03335 0.621907,-0.181131 0.249423,-0.151785 0.358179,-0.428307 z m 4.43344,6.178686 q 0.01626,0.02388 0.03751,0.06533 0.0271,0.03979 0.04249,0.08291 0.01748,0.03936 0.02325,0.08203 0.0079,0.03892 -0.0068,0.06524 -0.0084,0.01504 -0.02808,0.02378 -0.37431,0.175713 -0.740473,0.257332 -0.360303,0.07996 -0.705378,0.07964 -0.339215,-0.002 -0.647722,-0.08545 -0.310607,-0.07972 -0.573805,-0.226673 -0.451198,-0.251926 -0.724326,-0.646103 -0.273128,-0.394178 -0.365398,-0.864931 -0.09227,-0.470754 -0.0071,-0.985466 0.09103,-0.516373 0.366049,-1.00893 0.224634,-0.402318 0.535747,-0.756349 0.314874,-0.351933 0.683953,-0.624278 0.372839,-0.270245 0.787727,-0.447963 0.416986,-0.181477 0.849607,-0.240786 0.43848,-0.06097 0.876676,0.01107 0.441956,0.07414 0.863074,0.309271 0.278238,0.155354 0.488169,0.371213 0.209931,0.215858 0.318153,0.463706 0.114082,0.246188 0.111415,0.515968 -0.0027,0.26978 -0.149624,0.532979 -0.214137,0.383518 -0.625608,0.528617 -0.407712,0.147199 -0.958897,0.10085 -0.551184,-0.04635 -1.218301,-0.256072 -0.661256,-0.211383 -1.386682,-0.53751 l -0.03569,0.06392 q -0.268721,0.481277 -0.370936,0.947015 -0.09846,0.467837 -0.04369,0.87326 0.05687,0.401663 0.258209,0.721235 0.201344,0.319572 0.535982,0.506417 0.338398,0.188944 0.784209,0.220847 0.45167,0.03024 1.026326,-0.142115 z m 0.978929,-3.413946 q 0.09657,-0.172959 0.120388,-0.356948 0.02757,-0.18189 -0.01682,-0.349712 -0.03854,-0.169483 -0.145727,-0.313179 -0.10719,-0.143696 -0.272629,-0.236069 -0.244399,-0.13646 -0.491963,-0.161248 -0.247565,-0.02479 -0.489459,0.03744 -0.239795,0.05847 -0.471382,0.190564 -0.229487,0.128339 -0.43983,0.301891 -0.206583,0.175653 -0.389385,0.37938 -0.182801,0.203727 -0.329225,0.412969 0.554911,0.260513 1.026414,0.405405 0.477362,0.143231 0.846657,0.162004 0.375154,0.01711 0.64058,-0.09609 0.267526,-0.116965 0.412383,-0.376403 z m 2.32248,0.17816 q 0.469575,0.183205 0.792851,0.322522 0.323276,0.139316 0.534595,0.23985 0.214704,0.103197 0.326882,0.169553 0.118225,0.06564 0.168988,0.105582 0.08461,0.06658 0.137753,0.152239 0.05581,0.08228 0.06202,0.185803 0.0096,0.106188 -0.0425,0.235066 -0.04944,0.125493 -0.169274,0.277782 -0.03995,0.05076 -0.163891,0.194341 -0.120561,0.146241 -0.341819,0.399556 -0.218596,0.24993 -0.543215,0.613702 -0.318572,0.363051 -0.757205,0.850817 l 0.03795,0.03534 q 0.780608,-0.448811 1.481987,-0.713377 0.707426,-0.265287 1.293792,-0.362806 0.58975,-0.09486 1.042961,-0.02317 0.455874,0.06831 0.740146,0.292006 0.230125,0.181091 0.336862,0.407561 0.109401,0.223086 0.123487,0.469804 0.02013,0.245997 -0.04101,0.504752 -0.05848,0.255371 -0.166783,0.504416 -0.105639,0.245661 -0.247061,0.474123 -0.141423,0.228461 -0.285231,0.411208 -0.391475,0.497476 -0.833877,0.850759 -0.442403,0.353284 -0.903332,0.576911 -0.458266,0.220243 -0.922244,0.315435 -0.463978,0.09519 -0.899326,0.07044 -0.4293,-0.02548 -0.817154,-0.166291 -0.387133,-0.134769 -0.695095,-0.377111 -0.328266,-0.25832 -0.546404,-0.621772 -0.218137,-0.363452 -0.276545,-0.853282 -0.705664,0.820138 -1.453937,1.694423 -0.750937,0.877669 -1.529283,1.859805 l -0.774594,-0.47803 -0.0684,-0.05931 q 0.548762,-0.592897 1.141355,-1.25542 0.58993,-0.659139 1.178417,-1.330373 0.588488,-0.671233 1.151565,-1.324104 0.56574,-0.656254 1.054751,-1.235893 0.48901,-0.579639 0.879986,-1.055589 0.397023,-0.476671 0.647354,-0.794785 0.101198,-0.1286 0.162228,-0.234009 0.06369,-0.108794 0.07368,-0.205051 0.01337,-0.09359 -0.03711,-0.18264 -0.04782,-0.09243 -0.169652,-0.188301 -0.125215,-0.09853 -0.325882,-0.212606 -0.200667,-0.11407 -0.50508,-0.249503 z m -1.250964,5.196853 q 0.09591,0.470025 0.28964,0.808788 0.197111,0.341426 0.484767,0.567789 0.37903,0.298267 0.822309,0.389541 0.449327,0.09055 0.929783,-0.04647 0.483841,-0.13436 0.979948,-0.500181 0.502154,-0.366542 0.989501,-0.985849 0.18109,-0.230125 0.335607,-0.50308 0.157901,-0.270293 0.234525,-0.527827 0.08267,-0.258256 0.05599,-0.482006 -0.02063,-0.22447 -0.196611,-0.362952 -0.206436,-0.162449 -0.494706,-0.21394 -0.285608,-0.05488 -0.622314,-0.02393 -0.330659,0.03023 -0.69838,0.13541 -0.367721,0.10518 -0.739105,0.256797 -0.36872,0.148233 -0.726346,0.338076 -0.354963,0.186458 -0.668815,0.383348 -0.310469,0.199553 -0.563127,0.395279 -0.249274,0.198389 -0.412666,0.371204 z"
       id="text1"
       style="font-size:17.6389px;font-family:Gabriola;-inkscape-font-specification:'Gabriola, Normal';white-space:pre;fill:#354769;stroke:#354769;stroke-width:1.00157"
       aria-label="Keep" /><path
       d="m 16.149661,81.356058 q -0.08336,-0.125571 -0.09744,-0.255786 -0.01049,-0.132596 0.02677,-0.255544 0.04085,-0.12533 0.124668,-0.23266 0.0874,-0.109713 0.202211,-0.18593 0.161449,-0.107179 0.319159,-0.134343 0.161298,-0.02955 0.300979,0.0018 0.143269,0.02894 0.251805,0.106789 0.112125,0.07546 0.178815,0.175921 0.08098,0.121983 0.09865,0.249816 0.02126,0.125451 -0.01242,0.246017 -0.0313,0.124154 -0.111522,0.229103 -0.07426,0.106155 -0.192654,0.184754 -0.125571,0.08336 -0.279724,0.12367 -0.150565,0.03793 -0.303421,0.02569 -0.150475,-0.0087 -0.285302,-0.07938 -0.132445,-0.06714 -0.22057,-0.19989 z m -1.414453,1.388696 q -0.449494,0.21053 -0.890667,0.44138 -0.437586,0.228469 -0.84053,0.454617 -0.400563,0.229735 -0.754515,0.444034 -0.347982,0.215505 -0.624239,0.398902 -0.373127,0.247704 -0.635064,0.4371 -0.258348,0.187014 -0.424652,0.333599 -0.166303,0.146585 -0.253706,0.256297 -0.08143,0.110919 -0.106698,0.205225 -0.0193,0.09551 0.0104,0.179177 0.03208,0.08725 0.094,0.180533 0.114325,0.172212 0.295551,0.336194 0.187196,0.165188 0.416238,0.307764 l -0.141309,0.19202 Q 10.690233,86.851508 10.451603,86.725634 10.215354,86.603349 9.982754,86.447627 9.7501538,86.291906 9.5581947,86.119543 9.3650296,85.953149 9.2649952,85.802463 q -0.06669,-0.100457 -0.1035316,-0.194884 -0.04043,-0.09205 -0.021104,-0.203085 0.021708,-0.107452 0.1115527,-0.24463 0.092227,-0.133591 0.2836745,-0.312375 0.1938295,-0.175196 0.5048189,-0.407494 0.310989,-0.232298 0.770222,-0.537165 0.269082,-0.178633 0.608713,-0.398932 0.345601,-0.219092 0.740224,-0.46556 0.398211,-0.24885 0.840651,-0.516724 0.446027,-0.270256 0.924314,-0.54642 0.105221,-0.05951 0.197176,-0.05336 0.09554,0.0038 0.173086,0.0505 0.08113,0.04435 0.141912,0.112547 0.06675,0.0694 0.109622,0.133983 0.159578,0.24038 0.188882,0.525893 z m 0.174599,2.257708 q 0.13584,-0.112789 0.212103,-0.209695 0.07626,-0.0969 0.09351,-0.183992 0.02331,-0.08652 -0.0058,-0.168731 -0.02908,-0.08221 -0.1006,-0.168349 -0.09903,-0.119275 -0.269713,-0.257424 -0.170679,-0.13815 -0.403064,-0.303427 l 0.197285,-0.247765 q 0.278146,0.166461 0.523221,0.326799 0.251139,0.1609 0.452139,0.30186 0.201,0.140961 0.343045,0.258107 0.142045,0.117146 0.208068,0.196662 0.159554,0.192164 0.131623,0.394469 -0.02187,0.202867 -0.300173,0.433946 -0.03313,0.02751 -0.161221,0.122668 -0.124777,0.09241 -0.321318,0.233208 -0.193791,0.144114 -0.449408,0.328367 -0.252303,0.181502 -0.54324,0.383887 -0.288187,0.205699 -0.601754,0.421277 -0.310254,0.212826 -0.623259,0.42234 l 0.01319,0.02263 q 1.063871,-0.457942 1.889636,-0.656613 0.829078,-0.201422 1.441112,-0.20584 0.615348,-0.0072 1.022528,0.152907 0.40718,0.160077 0.630006,0.428444 0.154053,0.185538 0.227526,0.415593 0.07347,0.230055 0.0311,0.489126 -0.03962,0.262383 -0.215457,0.542719 -0.172526,0.277584 -0.513783,0.560931 -0.0994,0.08253 -0.279371,0.209574 -0.173912,0.127608 -0.393084,0.281601 -0.219172,0.153992 -0.470351,0.323366 -0.245114,0.169936 -0.480852,0.337684 -0.235738,0.167747 -0.448845,0.322302 -0.207044,0.155117 -0.356137,0.27891 -0.258427,0.214574 -0.404267,0.369249 -0.14309,0.157989 -0.197907,0.287464 -0.05151,0.126724 -0.01918,0.239814 0.03564,0.110339 0.134676,0.229613 0.143049,0.172285 0.343487,0.31931 0.20375,0.144274 0.446697,0.2616 l -0.120017,0.206 q -0.195116,-0.0395 -0.445814,-0.139194 -0.250697,-0.0997 -0.501334,-0.233026 -0.247886,-0.130017 -0.462641,-0.287544 -0.218067,-0.154775 -0.344611,-0.307181 -0.148551,-0.178912 -0.137748,-0.361398 0.0108,-0.182486 0.132447,-0.373044 0.124394,-0.187245 0.332622,-0.388124 0.21098,-0.197566 0.466094,-0.409389 0.311439,-0.258589 0.655949,-0.511053 0.350574,-0.251902 0.670768,-0.472982 0.320193,-0.22108 0.578561,-0.40202 0.264432,-0.180377 0.410211,-0.301419 0.387642,-0.321861 0.448825,-0.618942 0.0645,-0.299833 -0.136322,-0.541695 -0.159555,-0.192164 -0.497961,-0.269411 -0.338406,-0.07725 -0.7994,-0.05271 -0.45493,0.0251 -1.004877,0.151483 -0.543884,0.126945 -1.12377,0.345355 -0.576574,0.215658 -1.152203,0.520089 -0.57563,0.304432 -1.087987,0.685066 l -0.66109,-0.620929 -0.0407,-0.05576 q 0.336759,-0.234834 0.727091,-0.519748 0.390333,-0.284914 0.787854,-0.581393 0.400834,-0.299231 0.786227,-0.596835 0.391457,-0.297042 0.724401,-0.556695 0.339008,-0.259091 0.600187,-0.470351 0.26393,-0.207948 0.413023,-0.33174 z m 11.467411,7.960908 -0.352384,-0.240314 q 0.26952,-0.446141 0.487358,-0.787328 0.22479,-0.352076 0.417359,-0.581666 0.194887,-0.233218 0.400801,-0.331665 0.209545,-0.09613 0.454212,-0.04721 0.248297,0.05124 0.574965,0.259804 0.206891,0.132094 0.468533,0.314472 0.261642,0.182379 0.552321,0.383296 0.290679,0.200918 0.595877,0.411106 0.308827,0.212505 0.602829,0.400216 0.493633,0.31517 0.871117,0.556183 0.379801,0.237382 0.676121,0.421464 0.296319,0.184082 0.522363,0.318186 0.226043,0.134103 0.416796,0.235456 0.194382,0.10367 0.362044,0.185171 0.173609,0.08019 0.355483,0.155436 -0.04953,0.213619 -0.121373,0.326139 -0.15295,0.239557 -0.43732,0.236819 -0.280741,-4.21e-4 -0.676373,-0.25302 -0.373854,-0.238695 -0.854197,-0.606691 -0.474395,-0.369307 -1.081775,-0.818413 -0.353868,0.530237 -0.761344,1.128431 -0.403846,0.600512 -0.839131,1.242263 -0.432967,0.63812 -0.890421,1.306591 -0.451507,0.667158 -0.908961,1.335628 -0.455137,0.66484 -0.903321,1.318792 -0.444555,0.656265 -0.8613,1.268985 l -0.929751,-0.44034 -0.0607,-0.049 q 0.471665,-0.674721 0.902622,-1.293688 0.433275,-0.622597 0.846698,-1.222104 0.413422,-0.599506 0.820898,-1.197701 0.409793,-0.601824 0.833184,-1.24095 0.423391,-0.639126 0.875596,-1.331384 0.454523,-0.695889 0.957404,-1.483523 -0.202255,-0.139353 -0.414088,-0.279711 -0.209514,-0.143987 -0.430923,-0.28535 -0.221409,-0.141363 -0.418415,-0.256927 -0.197007,-0.115565 -0.384521,-0.173975 -0.187513,-0.05841 -0.374804,-0.04515 -0.184974,0.0096 -0.381005,0.124607 -0.193713,0.111345 -0.407753,0.342554 -0.21041,0.233526 -0.451423,0.61101 z m 2.161151,7.13586 q 0.188804,-0.391826 0.464685,-0.756036 0.275881,-0.36421 0.616267,-0.663877 0.342254,-0.303546 0.733918,-0.521141 0.397412,-0.219606 0.823529,-0.320215 0.426117,-0.100608 0.871593,-0.06282 0.445476,0.03779 0.887737,0.250891 0.496574,0.239277 0.775818,0.631965 0.283124,0.394557 0.376678,0.865077 0.09542,0.466641 0.01609,0.968579 -0.07545,0.50381 -0.296036,0.96159 -0.188804,0.39183 -0.464685,0.75604 -0.275882,0.36421 -0.622016,0.66588 -0.340385,0.29967 -0.737797,0.51928 -0.391664,0.21759 -0.817781,0.3182 -0.426117,0.10061 -0.871593,0.0628 -0.445475,-0.0378 -0.887736,-0.25089 -0.496574,-0.23927 -0.779698,-0.63383 -0.279245,-0.39269 -0.374668,-0.85933 -0.08967,-0.46865 -0.01422,-0.97246 0.07933,-0.50194 0.299916,-0.95972 z m 1.104785,0.0782 q -0.127116,0.26381 -0.219175,0.55407 -0.08818,0.29212 -0.124339,0.58541 -0.03616,0.2933 -0.01857,0.57425 0.02334,0.27894 0.115524,0.52413 0.09606,0.24705 0.264572,0.44298 0.172387,0.19779 0.432312,0.32303 0.283202,0.13647 0.554523,0.11902 0.277071,-0.0195 0.529456,-0.14642 0.256265,-0.12509 0.482377,-0.33642 0.229993,-0.20945 0.424788,-0.45498 0.196664,-0.24942 0.350796,-0.50976 0.15801,-0.25848 0.268301,-0.48737 0.128985,-0.26769 0.215296,-0.55593 0.09206,-0.29026 0.126349,-0.57967 0.03616,-0.293295 0.01282,-0.572235 -0.01759,-0.28095 -0.115524,-0.524129 -0.09219,-0.245189 -0.264572,-0.44298 -0.168507,-0.195922 -0.428433,-0.321168 -0.283202,-0.136462 -0.558403,-0.120882 -0.271321,0.01745 -0.527586,0.14254 -0.252385,0.12696 -0.482377,0.336413 -0.226113,0.211322 -0.420908,0.456856 -0.194795,0.245534 -0.354675,0.507891 -0.154131,0.260348 -0.262553,0.485354 z m 6.88601,0.28867 q -0.0911,0.27831 -0.216053,0.59084 -0.119525,0.30978 -0.255347,0.62781 -0.131728,0.31938 -0.271643,0.63608 -0.134482,0.31395 -0.258246,0.59515 -0.119672,0.28254 -0.220515,0.52141 -0.09541,0.23611 -0.148997,0.39981 -0.15942,0.48703 -0.04893,0.77242 0.11049,0.28538 0.417443,0.38586 0.347879,0.11387 0.834038,-0.13934 0.487498,-0.2573 1.054786,-0.8691 0.567289,-0.6118 1.093958,-1.43174 0.528008,-0.82403 0.933765,-1.84214 l 0.902482,0.17759 0.06414,0.0255 q -0.164102,0.37675 -0.340187,0.80395 -0.170653,0.42445 -0.338553,0.85433 -0.16656,0.42579 -0.315483,0.83922 -0.148923,0.41344 -0.264134,0.76541 -0.218364,0.66711 -0.279928,1.1182 -0.06022,0.44701 -0.01782,0.73276 0.04374,0.28166 0.168451,0.42669 0.130143,0.14229 0.289758,0.19454 0.09413,0.0308 0.192209,0.0357 0.10217,0.006 0.194741,3e-4 0.09391,-0.01 0.172791,-0.0295 0.08297,-0.0181 0.142802,-0.0348 l 0.07344,0.23247 q -0.158878,0.0839 -0.346479,0.14487 -0.186261,0.0568 -0.379515,0.0797 -0.194593,0.0269 -0.393501,0.0117 -0.198907,-0.0153 -0.387171,-0.0769 -0.237377,-0.0777 -0.431663,-0.24551 -0.190193,-0.16648 -0.289745,-0.44375 -0.09955,-0.27727 -0.08539,-0.68044 0.01825,-0.40184 0.197766,-0.95026 0.05761,-0.17598 0.124736,-0.35338 0.06713,-0.1774 0.149144,-0.37258 0.08201,-0.19519 0.181591,-0.41634 0.10501,-0.22391 0.232941,-0.49015 l -0.04234,-0.0229 q -0.614557,0.93616 -1.169715,1.52475 -0.551065,0.58993 -1.034176,0.90303 -0.479018,0.31445 -0.88175,0.382 -0.404071,0.0716 -0.715115,-0.0302 -0.233284,-0.0764 -0.423404,-0.22922 -0.187366,-0.14742 -0.296222,-0.38243 -0.107516,-0.2391 -0.112038,-0.57135 -4.3e-4,-0.33092 0.142914,-0.76884 0.09378,-0.28649 0.249766,-0.6523 0.15733,-0.3699 0.333489,-0.78349 0.181591,-0.41633 0.363035,-0.85991 0.182783,-0.44766 0.328806,-0.89376 0.05895,-0.18008 0.08954,-0.31507 0.03059,-0.13498 0.0178,-0.23433 -0.01279,-0.0993 -0.08125,-0.167059 -0.06436,-0.06638 -0.203516,-0.111929 -0.139152,-0.04555 -0.377646,-0.0783 -0.234403,-0.03141 -0.502738,-0.04222 l 0.03506,-0.314769 q 0.374451,-0.0088 0.689072,-0.001 0.320054,0.0051 0.563908,0.02146 0.247946,0.01772 0.412846,0.03998 0.168992,0.0236 0.242661,0.04771 0.147337,0.04823 0.224053,0.132245 0.07672,0.08402 0.100523,0.20509 0.02381,0.121073 -0.0026,0.271017 -0.02233,0.15128 -0.08262,0.33545 z m 8.003832,3.07607 q 0.163597,-0.20946 0.210479,-0.4504 0.03208,-0.16486 8.64e-4,-0.3201 -0.02616,-0.15864 -0.118911,-0.29075 -0.09192,-0.13634 -0.252897,-0.23347 -0.155924,-0.10053 -0.384187,-0.14495 -0.329713,-0.0641 -0.614823,0.003 -0.284288,0.0631 -0.526669,0.22656 -0.238153,0.16424 -0.433692,0.40258 -0.191312,0.23917 -0.343529,0.52542 -0.147989,0.28708 -0.25277,0.60011 -0.103959,0.30881 -0.163179,0.61316 -0.106104,0.5453 -0.0538,1.02051 0.05736,0.47181 0.236615,0.83573 0.180079,0.35968 0.467615,0.59551 0.287537,0.23582 0.651067,0.30655 0.384666,0.0748 0.816443,-0.0473 0.436827,-0.12558 0.895997,-0.50128 0.02289,0.0176 0.056,0.0504 0.03816,0.0294 0.06622,0.0655 0.02806,0.0362 0.04766,0.0707 0.0196,0.0345 0.01467,0.0599 -0.0033,0.0169 -0.0083,0.0203 l -0.01174,0.0153 q -0.539161,0.58387 -1.178202,0.80173 -0.63904,0.21785 -1.323829,0.0846 -0.371984,-0.0724 -0.664227,-0.23892 -0.293065,-0.16231 -0.511323,-0.39343 -0.217435,-0.23534 -0.363354,-0.52258 -0.140869,-0.29063 -0.215156,-0.6078 -0.06924,-0.32057 -0.07436,-0.65499 -7.4e-5,-0.33783 0.06408,-0.66754 0.08636,-0.44385 0.269949,-0.86877 0.184409,-0.42916 0.450184,-0.80299 0.270825,-0.37725 0.606222,-0.68051 0.340447,-0.30666 0.72961,-0.50294 0.394213,-0.19968 0.833028,-0.26785 0.439639,-0.0724 0.904619,0.0181 0.346622,0.0674 0.630295,0.21038 0.283674,0.14294 0.468823,0.34129 0.190199,0.19495 0.270014,0.43861 0.08487,0.24025 0.03305,0.50656 -0.03372,0.17331 -0.114995,0.29789 -0.07622,0.12117 -0.192364,0.19947 -0.111091,0.0749 -0.252001,0.10013 -0.13586,0.0218 -0.288036,-0.008 -0.093,-0.0181 -0.191156,-0.0547 -0.09311,-0.04 -0.182109,-0.10124 z m 2.406147,2.49041 q 0.405097,-1.06437 0.826255,-1.79528 0.425455,-0.73062 0.839831,-1.17279 0.418967,-0.44618 0.815728,-0.63057 0.396761,-0.18439 0.744766,-0.16061 0.240596,0.0164 0.457547,0.12623 0.217245,0.10549 0.375888,0.31057 0.162939,0.20537 0.245206,0.51746 0.08227,0.31209 0.0532,0.73742 -0.0088,0.12889 -0.04126,0.35113 -0.02786,0.21823 -0.06813,0.49173 -0.03998,0.2692 -0.0906,0.56789 -0.04633,0.29899 -0.08778,0.58967 -0.04145,0.29069 -0.07654,0.55159 -0.0308,0.2612 -0.04372,0.45023 -0.0229,0.33512 -0.01151,0.5474 0.01569,0.21258 0.07162,0.34158 0.05623,0.1247 0.160404,0.1793 0.104473,0.0503 0.259142,0.0609 0.22341,0.0153 0.468116,-0.0284 0.244999,-0.048 0.497525,-0.14297 l 0.06636,0.22898 q -0.163183,0.11403 -0.40829,0.22677 -0.245107,0.11275 -0.514524,0.20225 -0.265121,0.0898 -0.527306,0.13662 -0.262479,0.0511 -0.460111,0.0376 -0.232003,-0.0159 -0.356676,-0.14955 -0.124673,-0.1337 -0.178735,-0.35321 -0.04977,-0.21922 -0.05158,-0.50855 0.0025,-0.28903 0.02509,-0.61984 0.0273,-0.39957 0.08215,-0.82314 0.05914,-0.42329 0.115931,-0.8122 0.06109,-0.38862 0.108885,-0.70908 0.05239,-0.32447 0.06589,-0.5221 0.03259,-0.4769 -0.136007,-0.72582 -0.168302,-0.25322 -0.481936,-0.27465 -0.244892,-0.0167 -0.538541,0.1747 -0.289352,0.19173 -0.589568,0.54243 -0.295625,0.34669 -0.58346,0.83204 -0.287541,0.48106 -0.529398,1.05156 -0.241563,0.56621 -0.418201,1.19297 -0.176639,0.62676 -0.254461,1.26027 l -0.922756,0.0492 -0.06845,-0.009 q 0.06042,-0.50521 0.132186,-1.11324 0.07635,-0.61203 0.157699,-1.2971 0.08564,-0.68477 0.1751,-1.4254 0.09405,-0.74463 0.185561,-1.51533 0.09581,-0.7704 0.1925,-1.5537 0.09669,-0.7833 0.187617,-1.545406 0.09552,-0.766111 0.184387,-1.498145 0.08887,-0.732034 0.169042,-1.399917 0.01134,-0.102818 0.07219,-0.17204 0.06114,-0.07352 0.15,-0.110609 0.09345,-0.04109 0.206626,-0.05494 0.113173,-0.01385 0.233471,-0.0056 0.257781,0.01762 0.531946,0.174476 -0.158709,0.869703 -0.286247,1.599095 -0.127244,0.725095 -0.234554,1.347959 -0.102719,0.618858 -0.191268,1.156678 -0.08425,0.53811 -0.161272,1.03355 -0.07243,0.49144 -0.139096,0.96169 -0.06667,0.47025 -0.134505,0.95769 -0.06755,0.48314 -0.142326,1.00894 -0.07019,0.52181 -0.154548,1.12466 z"
       id="text2"
       style="font-size:17.6389px;font-family:Gabriola;-inkscape-font-specification:'Gabriola, Normal';white-space:pre;fill:#354769;stroke:#354769;stroke-width:1.00157"
       aria-label="in   Touch" /><circle
       style="font-style:normal;font-variant:normal;font-weight:normal;font-stretch:normal;font-size:17.6389px;font-family:Gabriola;-inkscape-font-specification:'Gabriola, Normal';font-variant-ligatures:normal;font-variant-caps:normal;font-variant-numeric:normal;font-variant-east-asian:normal;white-space:pre;display:inline;fill:none;fill-opacity:1;stroke:none;stroke-width:1.36104;stroke-dasharray:none;stroke-opacity:1"
       id="path5"
       cx="-52.200241"
       cy="58.097584"
       r="40.402122"
       transform="rotate(-84.054546)" /><circle
       style="font-style:normal;font-variant:normal;font-weight:normal;font-stretch:normal;font-size:17.6389px;font-family:Gabriola;-inkscape-font-specification:'Gabriola, Normal';font-variant-ligatures:normal;font-variant-caps:normal;font-variant-numeric:normal;font-variant-east-asian:normal;white-space:pre;display:inline;fill:none;fill-opacity:1;stroke:none;stroke-width:1.72645;stroke-dasharray:none;stroke-opacity:1"
       id="path5-0"
       cx="-14.226563"
       cy="76.126137"
       transform="matrix(-0.85095769,0.52523425,0.52523425,0.85095769,0,0)"
       r="51.249256" /></g></svg>
